<svg width="28" height="28" viewBox="0 0 28 28" fill="none" xmlns="http://www.w3.org/2000/svg">
<path fill-rule="evenodd" clip-rule="evenodd" d="M19.1429 2H8.85714C5.07005 2 2 5.07005 2 8.85714V19.1429C2 22.9299 5.07005 26 8.85714 26H19.1429C22.9299 26 26 22.9299 26 19.1429V8.85714C26 5.07005 22.9299 2 19.1429 2Z" stroke="white" stroke-width="3.6" stroke-linecap="round" stroke-linejoin="round"/>
<path fill-rule="evenodd" clip-rule="evenodd" d="M14 18.9411C11.1596 18.9411 8.85712 16.6658 8.85712 13.8588C8.85712 11.0518 11.1596 8.77643 14 8.77643C16.8404 8.77643 19.1428 11.0518 19.1428 13.8588C19.1428 15.2066 18.6009 16.4994 17.6365 17.4525C16.672 18.4056 15.3639 18.9411 14 18.9411Z" stroke="white" stroke-width="3.6" stroke-linecap="round" stroke-linejoin="round"/>
<path d="M20.8572 5.38819C19.9104 5.38819 19.1429 6.14668 19.1429 7.08231C19.1429 8.01795 19.9104 8.77643 20.8572 8.77643C21.8039 8.77643 22.5715 8.01795 22.5715 7.08231C22.5715 6.14668 21.8039 5.38819 20.8572 5.38819Z" fill="white"/>
<path d="M20.8571 6.23526C20.3837 6.23526 19.9999 6.61451 19.9999 7.08232C19.9999 7.55014 20.3837 7.92938 20.8571 7.92938C21.3305 7.92938 21.7142 7.55014 21.7142 7.08232C21.7142 6.61451 21.3305 6.23526 20.8571 6.23526Z" stroke="white" stroke-width="2.4" stroke-linecap="round"/>
</svg>
