<svg width="130" height="65" viewBox="0 0 130 65" fill="none" xmlns="http://www.w3.org/2000/svg">
<path d="M24.9688 17.8125C24.9688 18.5729 24.8125 19.2865 24.5 19.9531C24.1979 20.6198 23.7865 21.2031 23.2656 21.7031C22.7552 22.2031 22.1562 22.599 21.4688 22.8906C20.7917 23.1719 20.0729 23.3125 19.3125 23.3125H17.7031C16.9427 23.3125 16.2188 23.1719 15.5312 22.8906C14.8542 22.599 14.2552 22.2031 13.7344 21.7031C13.224 21.2031 12.8125 20.6198 12.5 19.9531C12.1979 19.2865 12.0469 18.5729 12.0469 17.8125V16.9219L14.0625 16.5938V17.8125C14.0625 18.3125 14.1615 18.7812 14.3594 19.2188C14.5677 19.6458 14.8438 20.026 15.1875 20.3594C15.5312 20.6823 15.9271 20.9375 16.375 21.125C16.8333 21.3125 17.3125 21.4062 17.8125 21.4062H19.2188C19.7188 21.4062 20.1927 21.3125 20.6406 21.125C21.0885 20.9375 21.4844 20.6823 21.8281 20.3594C22.1719 20.026 22.4427 19.6458 22.6406 19.2188C22.849 18.7812 22.9531 18.3125 22.9531 17.8125V17.1406C22.9531 16.3698 22.8021 15.7292 22.5 15.2188C22.1979 14.7083 21.7969 14.276 21.2969 13.9219C20.7969 13.5573 20.2292 13.25 19.5938 13C18.9688 12.75 18.3229 12.5 17.6562 12.25C16.9896 12 16.3385 11.724 15.7031 11.4219C15.0781 11.1198 14.5156 10.7448 14.0156 10.2969C13.5156 9.83854 13.1146 9.28125 12.8125 8.625C12.5104 7.96875 12.3594 7.16146 12.3594 6.20312V5.78125C12.3594 5.02083 12.5 4.30729 12.7812 3.64062C13.0729 2.97396 13.4688 2.39062 13.9688 1.89062C14.4688 1.39062 15.0521 1 15.7188 0.71875C16.3958 0.427083 17.1146 0.28125 17.875 0.28125H19.3125C20.0729 0.28125 20.7865 0.427083 21.4531 0.71875C22.1198 1 22.7031 1.39062 23.2031 1.89062C23.7031 2.39062 24.0938 2.97396 24.375 3.64062C24.6667 4.30729 24.8125 5.02083 24.8125 5.78125V6.35938L22.7969 6.6875V5.78125C22.7969 5.28125 22.7031 4.81771 22.5156 4.39062C22.3281 3.95312 22.0729 3.57292 21.75 3.25C21.4271 2.92708 21.0469 2.67188 20.6094 2.48438C20.1823 2.29688 19.7188 2.20312 19.2188 2.20312H17.9688C17.4688 2.20312 17 2.29688 16.5625 2.48438C16.1354 2.67188 15.7552 2.92708 15.4219 3.25C15.099 3.57292 14.8438 3.95312 14.6562 4.39062C14.4688 4.81771 14.375 5.28125 14.375 5.78125V6.20312C14.375 6.92188 14.526 7.52604 14.8281 8.01562C15.1302 8.50521 15.5312 8.92708 16.0312 9.28125C16.5312 9.625 17.0938 9.92708 17.7188 10.1875C18.3542 10.4375 19.0052 10.6979 19.6719 10.9688C20.3385 11.2292 20.9844 11.5208 21.6094 11.8438C22.2448 12.1562 22.8125 12.5469 23.3125 13.0156C23.8125 13.474 24.2135 14.0365 24.5156 14.7031C24.8177 15.3698 24.9688 16.1823 24.9688 17.1406V17.8125ZM49.5938 17.8125C49.5938 18.5729 49.4479 19.2865 49.1562 19.9531C48.875 20.6198 48.4844 21.2031 47.9844 21.7031C47.4844 22.2031 46.901 22.599 46.2344 22.8906C45.5677 23.1719 44.8542 23.3125 44.0938 23.3125H42.5C41.7396 23.3125 41.0208 23.1719 40.3438 22.8906C39.6771 22.599 39.0938 22.2031 38.5938 21.7031C38.0938 21.2031 37.6979 20.6198 37.4062 19.9531C37.125 19.2865 36.9844 18.5729 36.9844 17.8125V5.78125C36.9844 5.02083 37.125 4.30729 37.4062 3.64062C37.6979 2.97396 38.0938 2.39062 38.5938 1.89062C39.0938 1.39062 39.6771 1 40.3438 0.71875C41.0208 0.427083 41.7396 0.28125 42.5 0.28125H44.0938C44.8542 0.28125 45.5677 0.427083 46.2344 0.71875C46.901 1 47.4844 1.39062 47.9844 1.89062C48.4844 2.39062 48.875 2.97396 49.1562 3.64062C49.4479 4.30729 49.5938 5.02083 49.5938 5.78125V17.8125ZM47.5781 5.78125C47.5781 5.28125 47.4844 4.81771 47.2969 4.39062C47.1094 3.95312 46.8542 3.57292 46.5312 3.25C46.2083 2.92708 45.8281 2.67188 45.3906 2.48438C44.9635 2.29688 44.5 2.20312 44 2.20312H42.5938C42.0938 2.20312 41.625 2.29688 41.1875 2.48438C40.7604 2.67188 40.3802 2.92708 40.0469 3.25C39.724 3.57292 39.4688 3.95312 39.2812 4.39062C39.0938 4.81771 39 5.28125 39 5.78125V17.8125C39 18.3125 39.0938 18.7812 39.2812 19.2188C39.4688 19.6458 39.724 20.026 40.0469 20.3594C40.3802 20.6823 40.7604 20.9375 41.1875 21.125C41.625 21.3125 42.0938 21.4062 42.5938 21.4062H44C44.5 21.4062 44.9635 21.3125 45.3906 21.125C45.8281 20.9375 46.2083 20.6823 46.5312 20.3594C46.8542 20.026 47.1094 19.6458 47.2969 19.2188C47.4844 18.7812 47.5781 18.3125 47.5781 17.8125V5.78125ZM62.0781 23V0.59375H64.0938V21.0781H72.6719V23H62.0781ZM83.875 23V0.59375H85.8906V23H83.875ZM111.641 17.5C111.641 18.2604 111.495 18.974 111.203 19.6406C110.922 20.3073 110.531 20.8906 110.031 21.3906C109.531 21.8906 108.943 22.2865 108.266 22.5781C107.599 22.8594 106.885 23 106.125 23H99.0312V0.59375H106.125C106.885 0.59375 107.599 0.739583 108.266 1.03125C108.943 1.3125 109.531 1.70312 110.031 2.20312C110.531 2.70312 110.922 3.29167 111.203 3.96875C111.495 4.63542 111.641 5.34896 111.641 6.10938V17.5ZM109.625 6.10938C109.625 5.60938 109.531 5.14583 109.344 4.71875C109.156 4.28125 108.896 3.90104 108.562 3.57812C108.24 3.24479 107.859 2.98438 107.422 2.79688C106.995 2.60938 106.531 2.51562 106.031 2.51562H101.047V21.0781H106.031C106.531 21.0781 106.995 20.9844 107.422 20.7969C107.859 20.6094 108.24 20.3542 108.562 20.0312C108.896 19.7083 109.156 19.3333 109.344 18.9062C109.531 18.4688 109.625 18 109.625 17.5V6.10938ZM17.5694 64H16.5225L12.1631 47.1406L12.1006 46.2656L12.0069 47.1406L7.67875 64H6.63187L0.678749 41.5938H2.69437L7.085 58.625L7.1475 59.4531L7.21 58.625L11.5225 41.5938H12.6475L16.96 58.625L17.0225 59.4531L17.1006 58.625L21.4756 41.5938H23.4912L17.5694 64ZM45.9644 58.7812H38.8706L37.4019 64H35.3081L41.8706 41.5938H42.9331L49.5269 64H47.4487L45.9644 58.7812ZM39.4175 56.8594H45.4331L42.48 46.5312L42.4175 45.7031L42.355 46.5312L39.4175 56.8594ZM68.3906 43.5156V64H66.375V43.5156H61.0312V41.5938H73.7344V43.5156H68.3906ZM100.754 58.8125C100.754 59.5729 100.609 60.2865 100.317 60.9531C100.036 61.6198 99.645 62.2031 99.145 62.7031C98.645 63.2031 98.0617 63.599 97.395 63.8906C96.7283 64.1719 96.0148 64.3125 95.2544 64.3125H93.6606C92.9002 64.3125 92.1815 64.1719 91.5044 63.8906C90.8377 63.599 90.2544 63.2031 89.7544 62.7031C89.2544 62.2031 88.8585 61.6198 88.5669 60.9531C88.2856 60.2865 88.145 59.5729 88.145 58.8125V46.7812C88.145 46.0208 88.2856 45.3073 88.5669 44.6406C88.8585 43.974 89.2544 43.3906 89.7544 42.8906C90.2544 42.3906 90.8377 42 91.5044 41.7188C92.1815 41.4271 92.9002 41.2812 93.6606 41.2812H95.2544C96.0148 41.2812 96.7283 41.4271 97.395 41.7188C98.0617 42 98.645 42.3906 99.145 42.8906C99.645 43.3906 100.036 43.974 100.317 44.6406C100.609 45.3073 100.754 46.0208 100.754 46.7812V47.6875L98.7387 48V46.7812C98.7387 46.2812 98.645 45.8177 98.4575 45.3906C98.27 44.9531 98.0148 44.5729 97.6919 44.25C97.369 43.9271 96.9887 43.6719 96.5512 43.4844C96.1242 43.2969 95.6606 43.2031 95.1606 43.2031H93.7544C93.2544 43.2031 92.7856 43.2969 92.3481 43.4844C91.921 43.6719 91.5408 43.9271 91.2075 44.25C90.8846 44.5729 90.6294 44.9531 90.4419 45.3906C90.2544 45.8177 90.1606 46.2812 90.1606 46.7812V58.8125C90.1606 59.3125 90.2544 59.7812 90.4419 60.2188C90.6294 60.6458 90.8846 61.026 91.2075 61.3594C91.5408 61.6823 91.921 61.9375 92.3481 62.125C92.7856 62.3125 93.2544 62.4062 93.7544 62.4062H95.1606C95.6606 62.4062 96.1242 62.3125 96.5512 62.125C96.9887 61.9375 97.369 61.6823 97.6919 61.3594C98.0148 61.026 98.27 60.6458 98.4575 60.2188C98.645 59.7812 98.7387 59.3125 98.7387 58.8125V57.5938L100.754 57.9219V58.8125ZM127.368 64V53.7656H118.79V64H116.774V41.5938H118.79V51.8438H127.368V41.5938H129.384V64H127.368Z" fill="white"/>
</svg>
