<svg width="24" height="24" viewBox="0 0 24 24" fill="none" xmlns="http://www.w3.org/2000/svg">
<path fill-rule="evenodd" clip-rule="evenodd" d="M12 2.4C10.255 2.4 8.71083 3.60371 8.18283 5.37559L7.28159 8.4H8.05758H15.9424H16.7184L15.8172 5.37559C15.2891 3.60371 13.7449 2.4 12 2.4ZM19.0819 8.4L17.9643 4.6494C17.1393 1.88081 14.7266 0 12 0C9.27339 0 6.86064 1.88081 6.03563 4.6494L4.918 8.4H2.2543C0.742625 8.4 -0.340081 9.95472 0.0983136 11.496L1.36466 15.948L2.92796 21.444C3.35974 22.962 4.67313 24 6.16195 24H9.74718H14.2528H17.8381C19.3268 24 20.6402 22.962 21.0719 21.444L22.6353 15.948L23.9017 11.496C24.3401 9.95472 23.2574 8.4 21.7456 8.4H19.0819ZM5.74221 10.8H2.2543L3.2783 14.4H7.53515L7.07436 10.8H5.74221ZM9.348 10.8L9.80885 14.4H14.1911L14.6519 10.8H9.348ZM16.9256 10.8L16.4649 14.4H20.7216L21.7456 10.8H18.2577H16.9256ZM20.039 16.8H16.1576L15.5432 21.6H17.8381C18.3343 21.6 18.7721 21.254 18.916 20.748L20.039 16.8ZM13.2696 21.6L13.8839 16.8H10.116L10.7304 21.6H13.2696ZM8.45676 21.6L7.84236 16.8H3.96096L5.08395 20.748C5.22787 21.254 5.66568 21.6 6.16195 21.6H8.45676Z" fill="white"/>
</svg>
